#!OML:ASF F:\VICON\USERDATA\INSTALL\rory3\rory3.ASF
:FULLY-SPECIFIED
:DEGREES
1149
root -0.761303 17.0811 6.04847 8.53086 -103.567 -11.9671
lowerback 1.28098 1.88781 -1.53261
upperback -0.868155 2.3477 -4.09045
thorax -1.50052 1.13313 -3.40513
lowerneck -9.57733 -8.42964 -13.8766
upperneck -17.767 -10.082 12.2451
head -2.4041 -4.99285 5.89925
rclavicle 8.10048e-015 -3.10104e-014
rhumerus 42.5809 13.4159 -39.0567
rradius 50.5076
rwrist 14.0472
rhand -18.9499 3.50005
rfingers 7.12502
rthumb 7.35347 -26.3522
lclavicle 8.10048e-015 -3.10104e-014
lhumerus -36.6839 -9.44435 81.8672
lradius 62.3238
lwrist 9.11651
lhand -22.7636 18.0833
lfingers 7.12502
lthumb 3.67136 48.0314
rfemur -14.1312 -4.54034 14.0618
rtibia 57.7502
rfoot -12.679 15.0987
rtoes 5.52533
lfemur -5.60731 -0.436053 -18.3511
ltibia 38.1089
lfoot -22.4146 -4.75085
ltoes -22.1882
1150
root -0.760961 17.0969 6.05726 8.01308 -103.807 -11.4247
lowerback 1.31753 1.9809 -1.43418
upperback -0.851009 2.47912 -3.98734
thorax -1.49731 1.20038 -3.35766
lowerneck -9.84351 -8.46453 -14.4029
upperneck -17.9137 -10.0404 12.5592
head -2.36679 -4.95222 6.07751
rclavicle -7.85199e-015 1.11319e-014
rhumerus 39.4611 15.4251 -41.4791
rradius 51.6846
rwrist 14.5514
rhand -19.5271 4.29044
rfingers 7.12502
rthumb 6.79636 -25.5805
lclavicle -7.85199e-015 1.11319e-014
lhumerus -36.1463 -9.62855 82.0047
lradius 61.8938
lwrist 8.95536
lhand -22.9651 18.2354
lfingers 7.12502
lthumb 3.47677 48.1868
rfemur -14.5696 -4.68216 13.9596
rtibia 58.2013
rfoot -11.4481 15.2625
rtoes 6.36213
lfemur -5.58719 -0.458231 -18.2812
ltibia 38.0289
lfoot -22.2147 -4.76629
ltoes -22.8454
1151
root -0.756531 17.1152 6.0596 7.05348 -104.078 -10.4951
lowerback 1.49034 2.21348 -1.27937
upperback -0.800147 2.7973 -3.83378
thorax -1.52689 1.36172 -3.29925
lowerneck -9.95761 -8.63331 -15.1689
upperneck -18.2697 -10.169 12.9781
head -2.37526 -4.98803 6.33278
rclavicle -1.90336e-014 -2.78299e-014
rhumerus 35.8417 17.0163 -43.9544
rradius 52.829
rwrist 14.9278
rhand -19.7418 5.03764
rfingers 7.12502
rthumb 6.5891 -24.8399
lclavicle -1.90336e-014 -2.78299e-014
lhumerus -35.5573 -9.87162 82.3226
lradius 61.4963
lwrist 8.58303
lhand -22.9594 18.0441
lfingers 7.12502
lthumb 3.48235 47.9954
rfemur -14.9667 -4.67862 13.9636
rtibia 58.637
rfoot -9.98561 15.5246
rtoes 7.22099
lfemur -5.48474 -0.418701 -18.0524
ltibia 37.8895
lfoot -21.9819 -4.93627
ltoes -22.795
1152
root -0.755606 17.1297 6.05949 6.97112 -104.315 -10.5818
lowerback 1.68191 2.295 -1.58866
upperback -0.646986 2.90882 -3.54173
thorax -1.50218 1.42527 -2.83164
lowerneck -10.2602 -8.66979 -15.8873
upperneck -18.649 -10.1266 13.1763
head -2.40638 -4.93259 6.51783
rclavicle -6.36111e-015 -2.38542e-015
rhumerus 32.462 18.6402 -46.5513
rradius 53.7893
rwrist 15.1903
rhand -19.8904 5.57831
rfingers 7.12502
rthumb 6.44564 -24.3036
lclavicle -6.36111e-015 -2.38542e-015
lhumerus -35.1006 -9.51314 82.7153
lradius 61.2741
lwrist 8.0518
lhand -23.0675 17.917
lfingers 7.12502
lthumb 3.37788 47.87
rfemur -15.243 -4.80075 13.6417
rtibia 59.0918
rfoot -8.47136 15.862
rtoes 6.99539
lfemur -5.19189 -0.40362 -18.1058
ltibia 37.6708
lfoot -21.7846 -4.98312
ltoes -22.9544
1153
root -0.757099 17.1433 6.05707 7.18576 -104.404 -10.9032
lowerback 1.74952 2.23421 -2.20223
upperback -0.459313 2.83103 -3.1282
thorax -1.40092 1.39672 -2.05881
lowerneck -10.734 -8.5705 -16.2708
upperneck -19.0492 -9.938 13.0902
head -2.47831 -4.81345 6.56641
rclavicle -2.10215e-014 6.36111e-015
rhumerus 29.1919 20.1949 -49.2744
rradius 54.3838
rwrist 15.5343
rhand -20.2993 6.3085
rfingers 7.12502
rthumb 6.05089 -23.5851
lclavicle -2.10215e-014 6.36111e-015
lhumerus -34.7665 -8.89165 83.1268
lradius 61.1911
lwrist 7.46911
lhand -23.1666 17.984
lfingers 7.12502
lthumb 3.28218 47.9385
rfemur -15.5756 -5.09469 13.2311
rtibia 59.5428
rfoot -7.12839 16.2384
rtoes 5.8202
lfemur -4.93241 -0.505124 -18.2305
ltibia 37.3978
lfoot -21.6407 -4.8257
ltoes -23.7253
1154
root -0.754277 17.158 6.04929 7.17235 -104.453 -10.9099
lowerback 1.88104 2.29858 -2.68434
upperback -0.369624 2.9112 -2.83909
thorax -1.42027 1.44347 -1.49934
lowerneck -10.969 -8.54021 -16.4248
upperneck -19.5346 -9.88162 13.0687
head -2.59702 -4.77751 6.60387
rclavicle 5.86912e-014 7.15625e-015
rhumerus 25.3455 21.1492 -52.3221
rradius 54.7224
rwrist 15.8319
rhand -20.6927 6.76897
rfingers 7.12502
rthumb 5.67101 -23.1351
lclavicle 5.86912e-014 7.15625e-015
lhumerus -34.5469 -8.7512 83.4738
lradius 61.2608
lwrist 6.83641
lhand -22.959 18.0086
lfingers 7.12502
lthumb 3.48266 47.9599
rfemur -15.9748 -5.36644 12.9381
rtibia 59.983
rfoot -6.08056 16.6443
rtoes 4.17467
lfemur -4.74335 -0.673015 -18.2571
ltibia 37.0679
lfoot -21.4973 -4.61808
ltoes -23.9678
1155
root -0.750767 17.1717 6.04112 6.90308 -104.529 -10.5634
lowerback 1.97203 2.43339 -2.5472
upperback -0.30755 3.08766 -2.97596
thorax -1.39175 1.52847 -1.72411
lowerneck -11.1476 -8.58885 -16.2459
upperneck -20.0482 -9.92877 13.3917
head -2.70037 -4.82825 6.69222
rclavicle 3.93594e-014 1.98785e-014
rhumerus 21.22 21.4873 -55.9289
rradius 54.8601
rwrist 15.6888
rhand -21.2469 6.59177
rfingers 7.12502
rthumb 5.13592 -23.326
lclavicle 3.93594e-014 1.98785e-014
lhumerus -34.2554 -9.07249 83.3142
lradius 61.4558
lwrist 6.405
lhand -22.9939 18.008
lfingers 7.12502
lthumb 3.44897 47.9599
rfemur -16.453 -5.48034 12.7529
rtibia 60.3897
rfoot -5.34958 17.0973
rtoes 1.57045
lfemur -4.63326 -0.796414 -18.1788
ltibia 36.7271
lfoot -21.3066 -4.50831
ltoes -23.52
